#!OML:ASF F:\VICON\USERDATA\INSTALL\rory3\rory3.ASF
:FULLY-SPECIFIED
:DEGREES
295
root 0.241648 16.0501 13.6725 -1.8978 -0.0990585 5.31074
lowerback 13.3074 0.425966 -8.05773
upperback -4.14103 -0.807904 0.722004
thorax -11.9961 0.259997 5.55338
lowerneck -9.34025 -4.91048 -4.09435
upperneck 19.4129 -6.5647 2.29219
head 7.73087 -3.22731 0.805067
rclavicle -1.26725e-014 -9.93923e-015
rhumerus -49.2862 -8.28995 -76.8768
rradius 17.8148
rwrist 8.61073
rhand -7.56825 18.8283
rfingers 7.12502
rthumb 18.3242 -10.3286
lclavicle -1.26725e-014 -9.93923e-015
lhumerus -33.7518 6.37119 84.4266
lradius 23.2015
lwrist 0.36997
lhand -4.09435 22.1502
lfingers 7.12502
lthumb 21.6634 50.9583
rfemur -25.7055 -2.70257 15.1655
rtibia 76.3166
rfoot 5.78486 -0.265347
rtoes -13.0727
lfemur -9.10666 -12.1348 -32.6904
ltibia 26.9082
lfoot -10.6197 5.95851
ltoes 22.7635
296
root 0.255359 16.0444 13.7961 -1.81948 0.15114 5.36027
lowerback 13.3008 0.300371 -8.07322
upperback -4.13408 -0.975985 0.744843
thorax -11.9566 0.180758 5.62603
lowerneck -9.37223 -4.8802 -4.04761
upperneck 19.4233 -6.51946 2.24057
head 7.73498 -3.20675 0.784232
rclavicle 7.90169e-015 -5.56597e-015
rhumerus -49.6746 -8.203 -76.9242
rradius 17.9812
rwrist 8.25489
rhand -7.77542 19.381
rfingers 7.12502
rthumb 18.1249 -9.79456
lclavicle 7.90169e-015 -5.56597e-015
lhumerus -33.5021 6.05493 84.6325
lradius 23.7167
lwrist 1.05768
lhand -3.93801 22.7129
lfingers 7.12502
lthumb 21.8135 51.5036
rfemur -26.7665 -2.98842 15.259
rtibia 75.7406
rfoot 3.98929 -0.340332
rtoes -14.1153
lfemur -8.78016 -12.3719 -32.9303
ltibia 27.0868
lfoot -11.0585 5.90702
ltoes 22.3505
297
root 0.266869 16.0327 13.9161 -1.75757 0.311538 5.22023
lowerback 13.3729 0.202581 -7.93993
upperback -4.19832 -1.08131 0.843488
thorax -12.0552 0.132616 5.6874
lowerneck -9.45047 -4.84803 -4.16625
upperneck 19.6386 -6.46477 2.27325
head 7.82386 -3.18479 0.815569
rclavicle 2.6339e-015 1.35174e-014
rhumerus -50.1483 -7.99779 -76.9668
rradius 18.1404
rwrist 7.68738
rhand -7.76495 19.7687
rfingers 7.12502
rthumb 18.135 -9.40593
lclavicle 2.6339e-015 1.35174e-014
lhumerus -33.3528 5.88071 84.8326
lradius 23.9311
lwrist 1.37277
lhand -4.30115 22.2194
lfingers 7.12502
lthumb 21.4647 51.0502
rfemur -27.6658 -3.06467 15.6051
rtibia 74.9631
rfoot 2.17957 -0.752857
rtoes -12.9653
lfemur -8.46423 -12.5762 -32.9479
ltibia 27.2764
lfoot -11.568 5.85241
ltoes 22.0533
298
root 0.279524 16.0224 14.0353 -1.7058 0.528284 5.03443
lowerback 13.4296 0.0620378 -7.74498
upperback -4.29822 -1.23237 0.943146
thorax -12.1786 0.060443 5.72597
lowerneck -9.20043 -4.80611 -4.23135
upperneck 19.6145 -6.4084 2.28699
head 7.77169 -3.16461 0.842962
rclavicle -2.17669e-014 -1.11319e-014
rhumerus -50.8052 -7.89004 -76.9368
rradius 18.4386
rwrist 7.28614
rhand -7.55038 19.8803
rfingers 7.12502
rthumb 18.3414 -9.27502
lclavicle -2.17669e-014 -1.11319e-014
lhumerus -33.4352 5.8315 84.9099
lradius 24.3328
lwrist 1.39463
lhand -4.30029 21.826
lfingers 7.12502
lthumb 21.4656 50.6567
rfemur -28.5339 -3.11471 15.9935
rtibia 73.9972
rfoot 0.55915 -1.39565
rtoes -10.5807
lfemur -8.08624 -12.7976 -32.9348
ltibia 27.4259
lfoot -11.9823 5.86155
ltoes 21.702
299
root 0.29175 16.0117 14.1577 -1.64089 0.685782 5.20958
lowerback 13.3754 -0.0304904 -7.88255
upperback -4.25798 -1.37717 0.929196
thorax -12.0757 -0.00442512 5.81948
lowerneck -9.23526 -4.78883 -4.1564
upperneck 19.4831 -6.37234 2.19146
head 7.7274 -3.15072 0.803508
rclavicle 2.43511e-014 1.59028e-014
rhumerus -51.1942 -7.8016 -77.0401
rradius 18.8574
rwrist 6.85997
rhand -7.35436 19.7247
rfingers 7.12502
rthumb 18.53 -9.41274
lclavicle 2.43511e-014 1.59028e-014
lhumerus -33.2867 5.44606 85.116
lradius 24.8688
lwrist 1.88831
lhand -4.20969 21.7316
lfingers 7.12502
lthumb 21.5526 50.5524
rfemur -29.47 -3.19762 15.9419
rtibia 72.9407
rfoot -1.0363 -1.98107
rtoes -8.52122
lfemur -7.67298 -12.9421 -33.3113
ltibia 27.5291
lfoot -12.4737 5.91607
ltoes 21.435
300
root 0.299197 16.0002 14.2815 -1.57242 0.812299 5.3823
lowerback 13.2903 -0.101501 -8.10181
upperback -4.20874 -1.50328 0.925022
thorax -11.9456 -0.0557681 5.96453
lowerneck -9.21675 -4.79253 -4.02955
upperneck 19.315 -6.36987 2.06748
head 7.65989 -3.1524 0.744816
rclavicle 2.17669e-014 1.11319e-014
rhumerus -51.495 -7.67743 -77.2093
rradius 19.2011
rwrist 6.2615
rhand -7.27043 19.4469
rfingers 7.12502
rthumb 18.6107 -9.68279
lclavicle 2.17669e-014 1.11319e-014
lhumerus -33.0584 5.19328 85.2921
lradius 25.1853
lwrist 2.23091
lhand -4.43842 21.452
lfingers 7.12502
lthumb 21.3329 50.2978
rfemur -30.2705 -3.18642 15.937
rtibia 71.7322
rfoot -2.76585 -2.59529
rtoes -6.4986
lfemur -7.18325 -13.1095 -33.6617
ltibia 27.5281
lfoot -13.0268 5.92407
ltoes 21.2493
301
root 0.30375 15.9858 14.4028 -1.48145 0.93896 5.50013
lowerback 13.2737 -0.167375 -8.28621
upperback -4.18843 -1.62363 0.918404
thorax -11.8906 -0.102609 6.08829
lowerneck -9.44907 -4.78487 -3.93939
upperneck 19.4307 -6.36144 2.02923
head 7.73498 -3.1426 0.711395
rclavicle -1.45113e-014 7.15625e-015
rhumerus -51.7298 -7.63307 -77.3715
rradius 19.4045
rwrist 5.82512
rhand -7.3549 19.3771
rfingers 7.12502
rthumb 18.5295 -9.76036
lclavicle -1.45113e-014 7.15625e-015
lhumerus -32.886 4.90884 85.4347
lradius 25.5928
lwrist 2.54593
lhand -4.76108 21.1986
lfingers 7.12502
lthumb 21.0229 50.0791
rfemur -31.0481 -3.13204 16.0119
rtibia 70.4154
rfoot -4.35455 -3.21896
rtoes -4.96558
lfemur -6.62659 -13.2181 -33.9457
ltibia 27.3217
lfoot -13.2879 6.09407
ltoes 19.3034
302
root 0.308181 15.9823 14.5276 -1.37164 0.989609 5.40547
lowerback 13.2641 -0.220336 -8.30423
upperback -4.16558 -1.6877 0.993158
thorax -11.8454 -0.131092 6.19558
lowerneck -9.49027 -4.75588 -3.98843
upperneck 19.2734 -6.33488 2.16958
head 7.6959 -3.12043 0.768339
rclavicle -4.72114e-015 -7.95139e-016
rhumerus -51.9193 -7.29433 -77.7589
rradius 19.7406
rwrist 5.10838
rhand -7.35904 19.1713
rfingers 7.12502
rthumb 18.5255 -9.96662
lclavicle -4.72114e-015 -7.95139e-016
lhumerus -32.7611 4.44807 85.6619
lradius 26.1649
lwrist 2.97252
lhand -4.93014 20.7853
lfingers 7.12502
lthumb 20.8605 49.6837
rfemur -31.6728 -2.88462 16.3015
rtibia 68.795
rfoot -5.73689 -3.81308
rtoes -4.2323
lfemur -6.13881 -13.4924 -33.945
ltibia 27.0554
lfoot -13.7538 5.96858
ltoes 20.3362
303
root 0.315999 15.9819 14.6571 -1.33737 1.04172 5.51572
lowerback 13.2957 -0.247132 -8.47203
upperback -4.15861 -1.75285 1.02895
thorax -11.8423 -0.147905 6.34701
lowerneck -9.41277 -4.742 -4.07081
upperneck 19.1226 -6.30683 2.20428
head 7.63542 -3.11096 0.79924
rclavicle -7.90169e-015 -1.59028e-015
rhumerus -52.2481 -7.30629 -77.6915
rradius 19.9588
rwrist 4.87685
rhand -7.23341 19.2042
rfingers 7.12502
rthumb 18.6463 -9.92209
lclavicle -7.90169e-015 -1.59028e-015
lhumerus -32.706 4.17312 85.9032
lradius 26.6637
lwrist 3.37243
lhand -5.04826 20.3856
lfingers 7.12502
lthumb 20.747 49.2965
rfemur -32.0923 -2.71635 16.2874
rtibia 66.958
rfoot -6.79435 -4.32988
rtoes -4.28734
lfemur -5.46833 -13.8324 -34.2442
ltibia 26.761
lfoot -14.266 5.99189
ltoes 21.846
304
root 0.317847 15.9748 14.7825 -1.31715 0.979461 5.53217
lowerback 13.3097 -0.222948 -8.57337
upperback -4.16452 -1.73572 1.07081
thorax -11.8583 -0.12901 6.44872
lowerneck -9.47806 -4.74069 -4.12204
upperneck 19.2089 -6.30001 2.2236
head 7.67778 -3.10862 0.812088
rclavicle 9.93923e-015 -2.8625e-014
rhumerus -52.5811 -7.64077 -77.3923
rradius 19.9012
rwrist 4.97255
rhand -7.46196 19.5205
rfingers 7.12502
rthumb 18.4265 -9.6268
lclavicle 9.93923e-015 -2.8625e-014
lhumerus -32.6383 4.03426 86.0186
lradius 27.1309
lwrist 3.58248
lhand -4.89029 20.351
lfingers 7.12502
lthumb 20.8988 49.2453
rfemur -32.4723 -2.35289 16.3839
rtibia 64.92
rfoot -7.4512 -4.85322
rtoes -4.07891
lfemur -4.7276 -13.8875 -34.448
ltibia 26.4246
lfoot -14.6464 6.23202
ltoes 20.3059
305
root 0.31528 15.9735 14.9045 -1.27462 0.883188 5.30472
lowerback 13.4296 -0.208885 -8.51844
upperback -4.23861 -1.70914 1.1827
thorax -12.0182 -0.103509 6.54373
lowerneck -9.49214 -4.68907 -4.10368
upperneck 19.2954 -6.24633 2.28367
head 7.70822 -3.07593 0.832928
rclavicle 5.01931e-015 3.81667e-014
rhumerus -53.0794 -7.73144 -77.3225
rradius 20.2084
rwrist 4.7192
rhand -7.48823 19.5154
rfingers 7.12502
rthumb 18.4012 -9.63428
lclavicle 5.01931e-015 3.81667e-014
lhumerus -32.6602 3.93781 86.0601
lradius 27.5273
lwrist 3.57981
lhand -4.817 20.0316
lfingers 7.12502
lthumb 20.9692 48.9181
rfemur -32.7649 -1.71236 16.7537
rtibia 62.6798
rfoot -8.00071 -5.45713
rtoes -4.65415
lfemur -3.99981 -13.8419 -34.3309
ltibia 25.9957
lfoot -14.8895 6.49937
ltoes 18.3703
306
root 0.316302 15.9749 15.0287 -1.21039 1.0009 5.24783
lowerback 13.5855 -0.257997 -8.56761
upperback -4.33369 -1.79661 1.24409
thorax -12.2041 -0.124017 6.6698
lowerneck -9.68003 -4.64666 -4.01342
upperneck 19.5851 -6.1917 2.21726
head 7.83057 -3.0468 0.794758
rclavicle 9.93923e-017 0
rhumerus -53.644 -7.55224 -77.4545
rradius 20.7784
rwrist 4.16576
rhand -7.39148 19.1258
rfingers 7.12502
rthumb 18.4943 -10.015
lclavicle 9.93923e-017 0
lhumerus -32.8471 3.66525 86.2037
lradius 28.0375
lwrist 3.84565
lhand -5.16351 19.1314
lfingers 7.12502
lthumb 20.6363 48.0544
rfemur -32.8873 -1.21261 16.8415
rtibia 60.3111
rfoot -8.64286 -5.87931
rtoes -4.21048
lfemur -3.2524 -13.7874 -34.3943
ltibia 25.5469
lfoot -15.0697 6.73353
ltoes 16.2116
307
root 0.31898 15.9793 15.1541 -1.04879 1.08729 5.28829
lowerback 13.4962 -0.28578 -8.59773
upperback -4.3502 -1.83605 1.20716
thorax -12.1628 -0.144144 6.65111
lowerneck -9.78604 -4.70568 -3.97481
upperneck 19.6442 -6.28737 2.26167
head 7.87262 -3.08394 0.7901
rclavicle -9.69075e-015 -1.59028e-015
rhumerus -53.8495 -7.79359 -77.4539
rradius 20.9842
rwrist 3.90514
rhand -7.25055 18.8057
rfingers 7.12502
rthumb 18.6298 -10.3222
lclavicle -9.69075e-015 -1.59028e-015
lhumerus -32.8262 3.17871 86.3844
lradius 28.6396
lwrist 4.34635
lhand -5.40309 18.4674
lfingers 7.12502
lthumb 20.4061 47.4152
rfemur -33.0697 -0.685937 16.7785
rtibia 57.8456
rfoot -8.69079 -6.43368
rtoes -2.96427
lfemur -2.53979 -13.8853 -34.5629
ltibia 24.9905
lfoot -15.2298 6.98172
ltoes 14.6347
308
root 0.318825 15.9803 15.2794 -0.890424 1.02835 5.46323
lowerback 13.3467 -0.260915 -8.85029
upperback -4.30325 -1.83502 1.18362
thorax -12.0165 -0.135602 6.76127
lowerneck -9.85354 -4.72849 -4.1064
upperneck 19.4586 -6.3361 2.50229
head 7.8375 -3.0938 0.88539
rclavicle -2.75814e-014 -1.59028e-015
rhumerus -53.8721 -8.15608 -77.2711
rradius 21.0396
rwrist 3.90493
rhand -7.07354 18.7632
rfingers 7.12502
rthumb 18.8001 -10.3483
lclavicle -2.75814e-014 -1.59028e-015
lhumerus -32.6031 2.83109 86.5776
lradius 29.2323
lwrist 4.7881
lhand -5.45993 18.852
lfingers 7.12502
lthumb 20.3515 47.8056
rfemur -33.2533 0.093448 16.5344
rtibia 55.294
rfoot -8.4643 -7.11153
rtoes -1.52177
lfemur -1.78892 -13.9343 -34.8521
ltibia 24.2631
lfoot -15.3091 7.21304
ltoes 13.9378
309
root 0.314519 15.9861 15.4081 -0.826302 0.942712 5.55076
lowerback 13.3136 -0.200834 -9.07301
upperback -4.29599 -1.79209 1.17733
thorax -11.9942 -0.100104 6.8705
lowerneck -9.39767 -4.67542 -4.11661
upperneck 18.9624 -6.29612 2.6706
head 7.59615 -3.06721 0.961509
rclavicle 1.98785e-016 1.59028e-015
rhumerus -54.0328 -8.6517 -76.9147
rradius 20.9271
rwrist 4.06313
rhand -6.95426 19.0718
rfingers 7.12502
rthumb 18.9148 -10.0285
lclavicle 1.98785e-016 1.59028e-015
lhumerus -32.5268 2.45213 86.751
lradius 29.6462
lwrist 4.89407
lhand -5.59612 19.6483
lfingers 7.12502
lthumb 20.2206 48.6158
rfemur -33.242 1.07899 16.3192
rtibia 52.6508
rfoot -8.21709 -7.69283
rtoes -1.12465
lfemur -0.82432 -13.8461 -35.0426
ltibia 23.3278
lfoot -15.2969 7.46603
ltoes 12.6956
